<mxfile host="Electron" modified="2025-05-02T16:47:30.228Z" agent="Mozilla/5.0 (Windows NT 10.0; Win64; x64) AppleWebKit/537.36 (KHTML, like Gecko) draw.io/22.0.3 Chrome/114.0.5735.289 Electron/25.8.4 Safari/537.36" etag="D6ls0koXlhGlNImzpqa7" version="22.0.3" type="device">
  <diagram name="Page-1" id="A60PpUK_M8Io414tohY7">
    <mxGraphModel dx="2236" dy="614" grid="1" gridSize="10" guides="1" tooltips="1" connect="1" arrows="1" fold="1" page="1" pageScale="1" pageWidth="1200" pageHeight="1600" math="0" shadow="0">
      <root>
        <mxCell id="0" />
        <mxCell id="1" parent="0" />
        <mxCell id="iTNDXVumxFEB_QwAvt9x-21" value="" style="whiteSpace=wrap;html=1;aspect=fixed;fillColor=none;" vertex="1" parent="1">
          <mxGeometry x="-710" y="350" width="280" height="280" as="geometry" />
        </mxCell>
        <mxCell id="iTNDXVumxFEB_QwAvt9x-2" value="&lt;b&gt;CENTRAL&lt;/b&gt;" style="rounded=0;whiteSpace=wrap;html=1;" vertex="1" parent="1">
          <mxGeometry x="-615" y="540" width="90" height="70" as="geometry" />
        </mxCell>
        <mxCell id="iTNDXVumxFEB_QwAvt9x-8" value="&lt;b&gt;INTERNET&lt;/b&gt;" style="ellipse;whiteSpace=wrap;html=1;" vertex="1" parent="1">
          <mxGeometry x="-310" y="350" width="96.2" height="60" as="geometry" />
        </mxCell>
        <mxCell id="iTNDXVumxFEB_QwAvt9x-12" value="&lt;b&gt;ACQUISITION&lt;/b&gt;" style="rounded=0;whiteSpace=wrap;html=1;" vertex="1" parent="1">
          <mxGeometry x="-700" y="420" width="100" height="90" as="geometry" />
        </mxCell>
        <mxCell id="iTNDXVumxFEB_QwAvt9x-18" value="&lt;b&gt;ACQUISITION&lt;/b&gt;" style="rounded=0;whiteSpace=wrap;html=1;" vertex="1" parent="1">
          <mxGeometry x="-550" y="420" width="100" height="90" as="geometry" />
        </mxCell>
        <mxCell id="iTNDXVumxFEB_QwAvt9x-19" value="" style="fontColor=#0066CC;verticalAlign=top;verticalLabelPosition=bottom;labelPosition=center;align=center;html=1;outlineConnect=0;fillColor=#CCCCCC;strokeColor=#6881B3;gradientColor=none;gradientDirection=north;strokeWidth=2;shape=mxgraph.networks.biometric_reader;" vertex="1" parent="1">
          <mxGeometry x="-585.6" y="590" width="23.21" height="30" as="geometry" />
        </mxCell>
        <mxCell id="iTNDXVumxFEB_QwAvt9x-22" value="&lt;b&gt;&lt;font style=&quot;font-size: 20px;&quot;&gt;SMASHBOX&lt;/font&gt;&lt;/b&gt;" style="text;html=1;strokeColor=none;fillColor=none;align=center;verticalAlign=middle;whiteSpace=wrap;rounded=0;" vertex="1" parent="1">
          <mxGeometry x="-596.6" y="370" width="60" height="30" as="geometry" />
        </mxCell>
        <mxCell id="iTNDXVumxFEB_QwAvt9x-31" value="Customer" style="shape=umlActor;verticalLabelPosition=bottom;verticalAlign=top;html=1;outlineConnect=0;" vertex="1" parent="1">
          <mxGeometry x="-130" y="200" width="30" height="60" as="geometry" />
        </mxCell>
      </root>
    </mxGraphModel>
  </diagram>
</mxfile>
